HIERARCHY
ROOT hip
{
	OFFSET 0.000000 0.000000 0.000000 
	CHANNELS 6 Xposition Yposition Zposition Xrotation Zrotation Yrotation
	JOINT abdomen
	{
		OFFSET 0.000000 3.402643 0.000000 
		CHANNELS 3 Xrotation Zrotation Yrotation
		JOINT chest
		{
			OFFSET 0.000000 8.438565 -0.680529 
			CHANNELS 3 Xrotation Zrotation Yrotation
			JOINT neck
			{
				OFFSET 0.000000 10.207942 -0.272212 
				CHANNELS 3 Xrotation Zrotation Yrotation
				JOINT head
				{
					OFFSET 0.000000 3.130431 0.000000 
					CHANNELS 3 Xrotation Zrotation Yrotation
					End Site
					{
						OFFSET 0.000000 3.130435 0.000000 
					}
				}
			}
			JOINT lCollar
			{
				OFFSET 3.470700 6.669187 -0.816635 
				CHANNELS 3 Yrotation Zrotation Xrotation
				JOINT lShldr
				{
					OFFSET 3.198488 0.000000 0.000000 
					CHANNELS 3 Zrotation Yrotation Xrotation
					JOINT lForeArm
					{
						OFFSET 10.139888 0.000000 0.000000 
						CHANNELS 3 Yrotation Zrotation Xrotation
						JOINT lHand
						{
							OFFSET 8.370511 0.000000 0.000000 
							CHANNELS 3 Zrotation Yrotation Xrotation
							End Site
							{
								OFFSET 4.083176 0.000000 0.000000 
							}
						}
					}
				}
			}
			JOINT rCollar
			{
				OFFSET -3.470700 6.669187 -0.816635 
				CHANNELS 3 Yrotation Zrotation Xrotation
				JOINT rShldr
				{
					OFFSET -3.198488 0.000000 0.000000 
					CHANNELS 3 Zrotation Yrotation Xrotation
					JOINT rForeArm
					{
						OFFSET -10.139888 0.000000 0.000000 
						CHANNELS 3 Yrotation Zrotation Xrotation
						JOINT rHand
						{
							OFFSET -8.370511 0.000000 0.000000 
							CHANNELS 3 Zrotation Yrotation Xrotation
							End Site
							{
								OFFSET -4.083176 0.000000 0.000000 
							}
						}
					}
				}
			}
		}
	}
	JOINT lThigh
	{
		OFFSET 5.308129 -1.633274 1.361059 
		CHANNELS 3 Xrotation Zrotation Yrotation
		JOINT lShin
		{
			OFFSET -2.041588 -20.007561 0.000000 
			CHANNELS 3 Xrotation Zrotation Yrotation
			JOINT lFoot
			{
				OFFSET 0.000000 -19.190928 -1.224953 
				CHANNELS 3 Xrotation Yrotation Zrotation
				End Site
				{
					OFFSET 0.000000 -2.449906 4.627600 
				}
			}
		}
	}
	JOINT rThigh
	{
		OFFSET -5.308129 -1.633274 1.361059 
		CHANNELS 3 Xrotation Zrotation Yrotation
		JOINT rShin
		{
			OFFSET 2.041588 -20.007561 0.000000 
			CHANNELS 3 Xrotation Zrotation Yrotation
			JOINT rFoot
			{
				OFFSET 0.000000 -19.190928 -1.224953 
				CHANNELS 3 Xrotation Yrotation Zrotation
				End Site
				{
					OFFSET 0.000000 -2.449906 4.627600 
				}
			}
		}
	}
}
MOTION
Frames: 15
Frame Time: 0.016667
-0.485439 49.526459 1.380349 4.304175 -5.817729 -9.522405 3.435094 -8.995079 5.309248 -0.901438 5.458638 -0.647182 51.489674 7.893232 2.455527 -70.693771 15.452092 -24.933638 7.273855 -14.500642 9.673089 -60.165176 20.344707 3.446569 -53.629459 -1.474761 -2.200304 21.468870 34.986347 1.884474 -8.134607 22.364378 5.838155 35.390877 -16.026630 20.008482 57.743504 1.251928 -2.336862 -11.531209 -62.432949 3.278323 -25.756527 10.291007 -1.830079 63.109840 -2.651814 -5.424328 17.050304 12.955641 1.549496 -0.338106 6.086811 -16.700552 12.279394 6.030295 0.918459 -6.097165 -11.888508 -2.845823 
-0.621951 49.517735 2.760671 4.039328 -5.116172 -10.040739 3.780422 -9.210695 7.874230 -1.302265 4.569402 -1.145948 51.489674 7.893232 2.455527 -70.330215 14.048949 -26.372110 7.455729 -14.677820 9.689839 -59.380672 21.463556 4.808331 -53.629459 -1.474761 -2.200304 22.259851 35.922729 1.086028 -7.093714 21.864803 5.576511 36.344936 -16.327269 18.631344 57.649345 1.342210 -2.338139 -12.885193 -62.457115 4.959469 -27.866228 9.246469 -1.595566 62.078735 -3.071452 -4.896192 13.990460 12.379614 3.015911 1.251989 5.049272 -16.956789 12.657810 6.121754 1.029875 -6.614938 -11.836078 -4.504246 
-0.758465 49.490231 4.141023 3.689431 -4.405418 -10.657003 4.081057 -9.450334 10.535045 -1.635270 3.679944 -1.741591 51.489674 7.893232 2.455527 -69.721703 12.722141 -28.020346 7.744993 -14.928297 9.799649 -58.632523 22.591129 6.153257 -53.632835 -1.562587 -2.200558 23.133375 36.910763 0.567244 -6.138184 21.269686 5.339794 37.372429 -16.734861 17.161917 57.472893 1.336565 -2.338891 -13.834524 -62.356472 6.358554 -28.859982 8.366922 -0.908569 58.814949 -3.344526 -4.756668 11.733124 11.482583 4.179341 2.596084 4.034705 -17.637371 13.348520 5.881186 1.078847 -6.480152 -10.825685 -5.291371 
-0.894971 49.462738 5.521292 3.333447 -3.697125 -11.264394 4.359624 -9.693321 13.198649 -1.949769 2.790650 -2.336445 51.489674 7.893232 2.455527 -69.082878 11.417748 -29.677151 8.035196 -15.177852 9.906885 -57.838341 23.703362 7.519237 -53.626480 -1.650786 -2.201062 24.011402 37.899555 0.055774 -5.200751 20.666468 5.114692 38.412628 -17.124811 15.667184 57.296429 1.330892 -2.339520 -14.737663 -62.245747 7.713577 -29.866690 7.507707 -0.191466 55.538372 -3.580028 -4.605352 9.495119 10.512393 5.320656 3.954787 3.056253 -18.318407 14.042578 5.639808 1.106406 -6.354979 -9.832801 -6.068242 
-1.040362 49.441509 6.882181 3.075628 -2.992234 -11.793682 4.591950 -9.889015 15.686863 -2.361114 1.726389 -2.842860 51.489674 7.893232 2.455527 -68.040817 10.175349 -31.078085 8.391174 -15.532294 9.940781 -57.063541 24.542385 7.933867 -53.629292 -1.651262 -2.113451 24.712070 38.559769 0.183061 -4.631069 20.061743 5.004662 39.242416 -17.251820 14.871199 57.300774 1.257951 -2.423907 -15.209619 -62.420025 8.571748 -28.298769 6.620191 0.547598 47.480724 -4.136283 -4.084868 9.499049 8.823700 6.743079 5.413813 1.833041 -18.612720 14.700546 5.676634 1.178818 -6.062108 -8.894924 -6.578250 
-1.185746 49.420269 8.243013 2.806907 -2.299336 -12.324756 4.820031 -10.096410 18.181057 -2.772951 0.662941 -3.330194 51.489674 7.893232 2.455527 -66.974052 8.956934 -32.504429 8.757049 -15.884904 9.971996 -56.279953 25.385086 8.353642 -53.632290 -1.651751 -2.025866 25.413744 39.213833 0.306543 -4.050570 19.456810 4.882331 40.076584 -17.367619 14.082042 57.304775 1.167026 -2.513764 -15.675105 -62.597134 9.425047 -26.748549 5.732965 1.241057 39.431934 -4.643981 -3.448855 9.544360 7.107584 8.154230 6.884260 0.634667 -18.935608 15.348738 5.704026 1.248798 -5.740521 -7.964591 -7.082600 
-1.333319 49.329937 9.593103 2.462177 -1.590057 -12.847067 4.940446 -10.050000 19.748745 -2.921327 -0.136463 -3.505873 51.489674 7.893232 2.455527 -65.578117 7.719875 -33.546501 9.506874 -16.219105 10.200239 -56.167809 25.883215 6.867955 -53.537930 -1.564761 -2.112036 26.216837 38.925064 1.624417 -4.149107 18.661711 4.930295 40.279560 -16.858974 15.259832 57.306782 1.169727 -2.423257 -14.794567 -62.568855 8.385007 -24.180285 4.880724 1.768577 29.593031 -5.224920 -2.773170 10.417663 5.381817 9.251417 7.943147 -0.498637 -19.392265 16.052835 5.502109 1.267196 -4.854443 -7.420718 -7.454571 
-1.480889 49.239597 10.943192 2.104546 -0.883589 -13.370833 5.065516 -10.003792 21.325529 -3.074720 -0.935575 -3.672500 51.489674 7.893232 2.455527 -64.163826 6.499496 -34.608791 10.258978 -16.548176 10.426982 -56.068260 26.392054 5.367605 -53.453228 -1.477678 -2.197791 27.010849 38.614079 2.926058 -4.242185 17.857372 4.969894 40.508152 -16.346575 16.431782 57.309105 1.164220 -2.338053 -13.920218 -62.542915 7.364097 -21.625854 4.012833 2.251099 19.740252 -5.666735 -1.985729 11.305992 3.668223 10.372086 9.016405 -1.610813 -19.877335 16.762463 5.275618 1.319812 -3.945772 -6.905290 -7.831623 
-1.620530 49.016224 12.301399 1.753495 -0.265832 -13.545091 4.929651 -9.299401 21.774780 -3.129810 -1.989017 -3.234539 51.489674 7.893232 2.455527 -62.229034 5.174712 -34.869370 11.287597 -17.047466 10.757874 -56.500031 26.724566 2.399891 -53.186291 -1.466538 -2.294007 27.801176 37.793964 5.020247 -4.907170 17.051466 5.220096 40.208916 -15.461774 18.656483 57.485168 1.160137 -2.337415 -12.735403 -62.821060 5.823082 -19.531506 3.135211 2.511877 14.102404 -5.858119 -1.505331 9.761326 1.999802 10.900284 10.450498 -2.489395 -19.848484 16.793913 5.139363 1.285286 -2.947475 -7.734629 -10.625334 
-1.760170 48.792831 13.659603 1.398731 0.351032 -13.711152 4.794934 -8.598747 22.224346 -3.191757 -3.043278 -2.787570 51.489674 7.893232 2.455527 -60.308342 3.866622 -35.169594 12.332670 -17.544493 11.088308 -56.956356 27.030155 -0.583287 -52.929131 -1.463618 -2.384529 28.558794 36.956478 7.094236 -5.571402 16.239941 5.457982 39.956776 -14.562503 20.856840 57.661625 1.165781 -2.336656 -11.522666 -63.087795 4.247516 -17.429733 2.226270 2.753446 8.452890 -5.947066 -0.993864 8.235682 0.290383 11.398591 11.906743 -3.378440 -19.843037 16.843452 5.006063 1.262434 -1.977161 -8.651451 -13.429807 
-1.895624 48.441311 15.021799 0.963004 1.224318 -13.626138 4.453591 -7.524787 21.600271 -3.068847 -4.011428 -1.918935 51.489674 7.893232 2.455527 -58.100670 2.455066 -34.782398 13.080966 -17.969307 11.300592 -57.343727 27.526962 -3.037249 -52.925602 -1.551221 -2.296244 29.017447 36.500408 8.180082 -5.933842 15.787873 5.533751 39.647476 -14.459818 21.578531 57.747097 1.339745 -2.337089 -10.805220 -63.224075 3.106700 -16.807270 1.278339 2.809376 11.072260 -5.948838 -1.415029 5.997880 0.159156 10.514157 13.764777 -4.159964 -19.959490 16.488676 4.955778 1.295054 -1.185095 -10.211293 -15.905026 
-2.031079 48.089813 16.383995 0.520055 2.098235 -13.544143 4.093401 -6.460160 20.968527 -2.965586 -4.979638 -1.049454 51.489674 7.893232 2.455527 -55.908081 1.038762 -34.459415 13.835106 -18.387291 11.520557 -57.754482 28.011436 -5.509129 -52.922371 -1.648576 -2.207960 29.450840 36.034012 9.241844 -6.302967 15.344623 5.600080 39.353027 -14.355330 22.280958 57.822845 1.514099 -2.338160 -10.079118 -63.350510 1.954067 -16.198895 0.322377 2.847137 13.662136 -5.946002 -1.834830 3.765373 0.068562 9.625070 15.627022 -4.960557 -20.086592 16.143724 4.935506 1.381175 -0.479270 -11.838713 -18.367815 
-2.166083 47.881073 17.745764 -0.098422 3.067986 -13.447329 3.945380 -5.615126 19.834520 -2.936818 -5.683265 -0.618980 51.489674 7.893232 2.455527 -54.046787 -0.350970 -33.301514 14.013532 -18.560339 11.536733 -58.008720 28.801785 -6.303102 -53.189171 -1.466335 -2.205504 29.385195 35.859264 9.268451 -6.112122 15.614266 5.526879 39.408463 -14.537726 21.210930 58.004890 1.429996 -2.331098 -10.461468 -63.325661 1.802599 -15.687854 -1.073792 2.729425 16.307201 -5.910751 -2.322860 1.700836 -0.021672 8.745662 16.950863 -5.907976 -20.029736 16.503708 4.925082 1.418485 0.814309 -14.351597 -20.798008 
-2.301089 47.672348 19.107534 -0.715053 4.038219 -13.373509 3.776897 -4.774313 18.699888 -2.929543 -6.386689 -0.177949 51.489674 7.893232 2.455527 -52.207321 -1.768923 -32.185158 14.200315 -18.743481 11.546723 -58.291901 29.582037 -7.119548 -53.456219 -1.301653 -2.197074 29.332787 35.691422 9.300595 -5.917787 15.884437 5.444305 39.468620 -14.716190 20.139973 58.177742 1.347751 -2.329994 -10.844860 -63.309528 1.652593 -15.175951 -2.469760 2.599445 18.949669 -5.838221 -2.815609 -0.384464 -0.052851 7.873920 18.267904 -6.865098 -19.958380 16.850576 4.926750 1.418433 2.015552 -16.918556 -23.212959 
-2.439385 47.562672 20.464745 -1.243278 4.911942 -12.928901 3.898878 -4.461428 17.142815 -2.916068 -6.649888 -0.708572 51.489674 7.893232 2.455527 -51.124802 -3.158819 -29.629671 14.004024 -18.745569 11.471918 -58.560184 30.196949 -7.910997 -53.541161 -1.299861 -2.286103 29.274027 35.787724 8.757680 -5.543000 16.430080 5.300487 39.581276 -14.630334 18.540722 58.268330 1.169617 -2.328533 -11.304995 -62.996677 1.360120 -14.192124 -3.679834 1.891372 20.399670 -5.870304 -2.601936 -2.234582 -0.009278 6.971431 18.099403 -7.743775 -19.358898 18.731247 4.672162 1.458869 6.437579 -19.251698 -25.126448 
